<svg width="147" height="40" viewBox="0 0 147 40" fill="none" xmlns="http://www.w3.org/2000/svg">
<path d="M3.06161 21.739C1.71201 20.9724 1.712 19.0276 3.0616 18.261L27.5052 4.37661C28.8385 3.61928 30.493 4.58229 30.493 6.11565L30.493 33.8844C30.493 35.4177 28.8385 36.3807 27.5052 35.6234L3.06161 21.739Z" fill="#FFDB5C"/>
<path d="M14.2423 21.239C12.8927 20.4724 12.8927 18.5276 14.2423 17.761L27.251 10.3718C28.5843 9.61448 30.2388 10.5775 30.2388 12.1108L30.2388 26.8892C30.2388 28.4225 28.5843 29.3855 27.251 28.6282L14.2423 21.239Z" fill="#3D73FF"/>
<path d="M37.1196 19.368C37.1196 18.2587 37.3596 17.272 37.8396 16.408C38.3196 15.5333 38.9862 14.856 39.8396 14.376C40.7036 13.8853 41.6796 13.64 42.7676 13.64C44.1009 13.64 45.2422 13.992 46.1916 14.696C47.1409 15.4 47.7756 16.36 48.0956 17.576H45.0876C44.8636 17.1067 44.5436 16.7493 44.1276 16.504C43.7222 16.2587 43.2582 16.136 42.7356 16.136C41.8929 16.136 41.2102 16.4293 40.6876 17.016C40.1649 17.6027 39.9036 18.3867 39.9036 19.368C39.9036 20.3493 40.1649 21.1333 40.6876 21.72C41.2102 22.3067 41.8929 22.6 42.7356 22.6C43.2582 22.6 43.7222 22.4773 44.1276 22.232C44.5436 21.9867 44.8636 21.6293 45.0876 21.16H48.0956C47.7756 22.376 47.1409 23.336 46.1916 24.04C45.2422 24.7333 44.1009 25.08 42.7676 25.08C41.6796 25.08 40.7036 24.84 39.8396 24.36C38.9862 23.8693 38.3196 23.192 37.8396 22.328C37.3596 21.464 37.1196 20.4773 37.1196 19.368ZM51.1471 15.144C50.6671 15.144 50.2724 15.0053 49.9631 14.728C49.6644 14.44 49.5151 14.088 49.5151 13.672C49.5151 13.2453 49.6644 12.8933 49.9631 12.616C50.2724 12.328 50.6671 12.184 51.1471 12.184C51.6164 12.184 52.0004 12.328 52.2991 12.616C52.6084 12.8933 52.7631 13.2453 52.7631 13.672C52.7631 14.088 52.6084 14.44 52.2991 14.728C52.0004 15.0053 51.6164 15.144 51.1471 15.144ZM52.5071 16.072V25H49.7711V16.072H52.5071ZM57.2258 17.336C57.4925 16.92 57.8605 16.584 58.3298 16.328C58.7991 16.072 59.3485 15.944 59.9778 15.944C60.7138 15.944 61.3805 16.1307 61.9778 16.504C62.5751 16.8773 63.0445 17.4107 63.3858 18.104C63.7378 18.7973 63.9138 19.6027 63.9138 20.52C63.9138 21.4373 63.7378 22.248 63.3858 22.952C63.0445 23.6453 62.5751 24.184 61.9778 24.568C61.3805 24.9413 60.7138 25.128 59.9778 25.128C59.3591 25.128 58.8098 25 58.3298 24.744C57.8605 24.488 57.4925 24.1573 57.2258 23.752V29.256H54.4898V16.072H57.2258V17.336ZM61.1298 20.52C61.1298 19.8373 60.9378 19.304 60.5538 18.92C60.1805 18.5253 59.7165 18.328 59.1618 18.328C58.6178 18.328 58.1538 18.5253 57.7698 18.92C57.3965 19.3147 57.2098 19.8533 57.2098 20.536C57.2098 21.2187 57.3965 21.7573 57.7698 22.152C58.1538 22.5467 58.6178 22.744 59.1618 22.744C59.7058 22.744 60.1698 22.5467 60.5538 22.152C60.9378 21.7467 61.1298 21.2027 61.1298 20.52ZM70.3252 22.68V25H68.9332C67.9412 25 67.1678 24.76 66.6132 24.28C66.0585 23.7893 65.7812 22.9947 65.7812 21.896V18.344H64.6932V16.072H65.7812V13.896H68.5172V16.072H70.3092V18.344H68.5172V21.928C68.5172 22.1947 68.5812 22.3867 68.7092 22.504C68.8372 22.6213 69.0505 22.68 69.3492 22.68H70.3252ZM71.3052 20.52C71.3052 19.6027 71.4758 18.7973 71.8172 18.104C72.1692 17.4107 72.6438 16.8773 73.2412 16.504C73.8385 16.1307 74.5052 15.944 75.2412 15.944C75.8705 15.944 76.4198 16.072 76.8892 16.328C77.3692 16.584 77.7372 16.92 77.9932 17.336V16.072H80.7292V25H77.9932V23.736C77.7265 24.152 77.3532 24.488 76.8732 24.744C76.4038 25 75.8545 25.128 75.2252 25.128C74.4998 25.128 73.8385 24.9413 73.2412 24.568C72.6438 24.184 72.1692 23.6453 71.8172 22.952C71.4758 22.248 71.3052 21.4373 71.3052 20.52ZM77.9932 20.536C77.9932 19.8533 77.8012 19.3147 77.4172 18.92C77.0438 18.5253 76.5852 18.328 76.0412 18.328C75.4972 18.328 75.0332 18.5253 74.6492 18.92C74.2758 19.304 74.0892 19.8373 74.0892 20.52C74.0892 21.2027 74.2758 21.7467 74.6492 22.152C75.0332 22.5467 75.4972 22.744 76.0412 22.744C76.5852 22.744 77.0438 22.5467 77.4172 22.152C77.8012 21.7573 77.9932 21.2187 77.9932 20.536ZM94.3552 17.08C94.0672 16.5253 93.6672 16.1093 93.1552 15.832C92.6432 15.544 92.0512 15.4 91.3792 15.4C90.6432 15.4 89.9872 15.5653 89.4112 15.896C88.8352 16.2267 88.3818 16.696 88.0512 17.304C87.7312 17.912 87.5712 18.616 87.5712 19.416C87.5712 20.216 87.7312 20.9253 88.0512 21.544C88.3818 22.152 88.8352 22.6213 89.4112 22.952C89.9872 23.2827 90.6432 23.448 91.3792 23.448C92.3712 23.448 93.1765 23.1707 93.7952 22.616C94.4138 22.0613 94.7925 21.3093 94.9312 20.36H90.7552V18.904H96.8832V20.328C96.7658 21.192 96.4565 21.9867 95.9552 22.712C95.4645 23.4373 94.8192 24.0187 94.0192 24.456C93.2298 24.8827 92.3498 25.096 91.3792 25.096C90.3338 25.096 89.3792 24.856 88.5152 24.376C87.6512 23.8853 86.9632 23.208 86.4512 22.344C85.9498 21.48 85.6992 20.504 85.6992 19.416C85.6992 18.328 85.9498 17.352 86.4512 16.488C86.9632 15.624 87.6512 14.952 88.5152 14.472C89.3898 13.9813 90.3445 13.736 91.3792 13.736C92.5632 13.736 93.6138 14.0293 94.5312 14.616C95.4592 15.192 96.1312 16.0133 96.5472 17.08H94.3552ZM100.506 17.464C100.773 17.016 101.125 16.6693 101.562 16.424C102.01 16.168 102.538 16.04 103.146 16.04V17.928H102.682C101.968 17.928 101.424 18.1093 101.05 18.472C100.688 18.8347 100.506 19.464 100.506 20.36V25H98.6822V16.184H100.506V17.464ZM104.215 20.552C104.215 19.6667 104.396 18.8827 104.759 18.2C105.132 17.5173 105.633 16.9893 106.263 16.616C106.903 16.232 107.607 16.04 108.375 16.04C109.068 16.04 109.671 16.1787 110.183 16.456C110.705 16.7227 111.121 17.0587 111.431 17.464V16.184H113.271V25H111.431V23.688C111.121 24.104 110.7 24.4507 110.167 24.728C109.633 25.0053 109.025 25.144 108.343 25.144C107.585 25.144 106.892 24.952 106.263 24.568C105.633 24.1733 105.132 23.6293 104.759 22.936C104.396 22.232 104.215 21.4373 104.215 20.552ZM111.431 20.584C111.431 19.976 111.303 19.448 111.047 19C110.801 18.552 110.476 18.2107 110.071 17.976C109.665 17.7413 109.228 17.624 108.759 17.624C108.289 17.624 107.852 17.7413 107.447 17.976C107.041 18.2 106.711 18.536 106.455 18.984C106.209 19.4213 106.087 19.944 106.087 20.552C106.087 21.16 106.209 21.6933 106.455 22.152C106.711 22.6107 107.041 22.9627 107.447 23.208C107.863 23.4427 108.3 23.56 108.759 23.56C109.228 23.56 109.665 23.4427 110.071 23.208C110.476 22.9733 110.801 22.632 111.047 22.184C111.303 21.7253 111.431 21.192 111.431 20.584ZM119.363 17.672H117.731V25H115.891V17.672H114.851V16.184H115.891V15.56C115.891 14.5467 116.157 13.8107 116.691 13.352C117.235 12.8827 118.083 12.648 119.235 12.648V14.168C118.68 14.168 118.291 14.2747 118.067 14.488C117.843 14.6907 117.731 15.048 117.731 15.56V16.184H119.363V17.672ZM121.907 15.016C121.576 15.016 121.299 14.904 121.075 14.68C120.851 14.456 120.739 14.1787 120.739 13.848C120.739 13.5173 120.851 13.24 121.075 13.016C121.299 12.792 121.576 12.68 121.907 12.68C122.227 12.68 122.499 12.792 122.723 13.016C122.947 13.24 123.059 13.5173 123.059 13.848C123.059 14.1787 122.947 14.456 122.723 14.68C122.499 14.904 122.227 15.016 121.907 15.016ZM122.803 16.184V25H120.979V16.184H122.803ZM128.686 20.6L132.75 25H130.286L127.022 21.208V25H125.198V13.16H127.022V20.04L130.222 16.184H132.75L128.686 20.6ZM133.449 20.552C133.449 19.6667 133.631 18.8827 133.993 18.2C134.367 17.5173 134.868 16.9893 135.497 16.616C136.137 16.232 136.841 16.04 137.609 16.04C138.303 16.04 138.905 16.1787 139.417 16.456C139.94 16.7227 140.356 17.0587 140.665 17.464V16.184H142.505V25H140.665V23.688C140.356 24.104 139.935 24.4507 139.401 24.728C138.868 25.0053 138.26 25.144 137.577 25.144C136.82 25.144 136.127 24.952 135.497 24.568C134.868 24.1733 134.367 23.6293 133.993 22.936C133.631 22.232 133.449 21.4373 133.449 20.552ZM140.665 20.584C140.665 19.976 140.537 19.448 140.281 19C140.036 18.552 139.711 18.2107 139.305 17.976C138.9 17.7413 138.463 17.624 137.993 17.624C137.524 17.624 137.087 17.7413 136.681 17.976C136.276 18.2 135.945 18.536 135.689 18.984C135.444 19.4213 135.321 19.944 135.321 20.552C135.321 21.16 135.444 21.6933 135.689 22.152C135.945 22.6107 136.276 22.9627 136.681 23.208C137.097 23.4427 137.535 23.56 137.993 23.56C138.463 23.56 138.9 23.4427 139.305 23.208C139.711 22.9733 140.036 22.632 140.281 22.184C140.537 21.7253 140.665 21.192 140.665 20.584Z" fill="#646464"/>
</svg>
