<svg width="21" height="21" viewBox="0 0 21 21" fill="none" xmlns="http://www.w3.org/2000/svg">
<path fill-rule="evenodd" clip-rule="evenodd" d="M3.36652 5.5C3.36652 4.94772 3.81423 4.5 4.36652 4.5H16.3665C16.9188 4.5 17.3665 4.94772 17.3665 5.5C17.3665 6.05228 16.9188 6.5 16.3665 6.5H4.36652C3.81423 6.5 3.36652 6.05228 3.36652 5.5Z" fill="#111827"/>
<path fill-rule="evenodd" clip-rule="evenodd" d="M3.36652 10.5C3.36652 9.94772 3.81423 9.5 4.36652 9.5H10.3665C10.9188 9.5 11.3665 9.94772 11.3665 10.5C11.3665 11.0523 10.9188 11.5 10.3665 11.5H4.36652C3.81423 11.5 3.36652 11.0523 3.36652 10.5Z" fill="#111827"/>
<path fill-rule="evenodd" clip-rule="evenodd" d="M3.36652 15.5C3.36652 14.9477 3.81423 14.5 4.36652 14.5H16.3665C16.9188 14.5 17.3665 14.9477 17.3665 15.5C17.3665 16.0523 16.9188 16.5 16.3665 16.5H4.36652C3.81423 16.5 3.36652 16.0523 3.36652 15.5Z" fill="#111827"/>
</svg>
