<svg width="11" height="11" viewBox="0 0 11 11" fill="none" xmlns="http://www.w3.org/2000/svg">
<path d="M3.34021 5.33603C3.32816 5.21951 3.32146 5.10165 3.32146 4.98246C3.32146 4.76951 3.34155 4.56192 3.37905 4.35969C3.38843 4.31147 3.36298 4.26192 3.31878 4.24183C3.13664 4.16014 2.96923 4.04764 2.82459 3.90567C2.65415 3.74041 2.52003 3.54144 2.43079 3.32145C2.34155 3.10146 2.29914 2.86529 2.30628 2.62799C2.31834 2.19808 2.4911 1.7896 2.79244 1.48156C3.12325 1.14272 3.56789 0.957903 4.04066 0.963261C4.46789 0.967278 4.88039 1.13201 5.19244 1.42397C5.29825 1.52308 5.38932 1.6329 5.46566 1.75076C5.49244 1.79228 5.54468 1.80969 5.59021 1.79362C5.82593 1.71192 6.07503 1.65433 6.33084 1.62755C6.40584 1.61951 6.44869 1.53915 6.41521 1.47219C5.97994 0.611028 5.09066 0.0163857 4.06209 0.000314246C2.57816 -0.0224536 1.34066 1.19496 1.34066 2.67889C1.34066 3.51996 1.72771 4.26996 2.33441 4.76148C1.90852 4.95835 1.5161 5.23023 1.17593 5.5704C0.441998 6.30299 0.0268192 7.26996 3.3489e-05 8.30255C-0.000323973 8.31684 0.00218331 8.33106 0.00740747 8.34437C0.0126316 8.35768 0.020467 8.36981 0.030452 8.38004C0.0404369 8.39028 0.0523694 8.39841 0.0655463 8.40396C0.0787232 8.40951 0.092878 8.41237 0.107176 8.41237H0.858516C0.916105 8.41237 0.964319 8.36683 0.965658 8.30924C0.991105 7.53246 1.30584 6.80523 1.85896 6.25344C2.25271 5.85969 2.73485 5.58648 3.26119 5.45389C3.31209 5.43915 3.34691 5.3896 3.34021 5.33603ZM9.37369 4.98246C9.37369 3.51728 8.19646 2.32665 6.73664 2.30389C5.25271 2.28112 4.01655 3.49853 4.01655 4.98246C4.01655 5.82353 4.40494 6.57353 5.0103 7.06505C4.58 7.26451 4.18827 7.53835 3.85316 7.87397C3.11923 8.60656 2.70405 9.57353 2.67727 10.6048C2.67691 10.6191 2.67942 10.6333 2.68464 10.6466C2.68986 10.6599 2.6977 10.672 2.70768 10.6823C2.71767 10.6925 2.7296 10.7006 2.74278 10.7062C2.75596 10.7117 2.77011 10.7146 2.78441 10.7146H3.53441C3.592 10.7146 3.64021 10.6691 3.64155 10.6115C3.667 9.83469 3.98173 9.10746 4.53485 8.55567C5.11209 7.97844 5.87816 7.66103 6.69512 7.66103C8.17369 7.66103 9.37369 6.46237 9.37369 4.98246ZM7.90718 6.19451C7.58307 6.51862 7.15316 6.69674 6.69512 6.69674C6.23709 6.69674 5.80718 6.51862 5.48307 6.19451C5.32133 6.03362 5.19354 5.8419 5.10727 5.63071C5.021 5.41952 4.97801 5.19316 4.98084 4.96505C4.98485 4.52576 5.1603 4.10121 5.467 3.78648C5.78843 3.45701 6.21834 3.27353 6.67771 3.26817C7.13173 3.26415 7.57236 3.44094 7.89646 3.75835C8.22861 4.0838 8.41075 4.51906 8.41075 4.98246C8.40941 5.44049 8.23128 5.8704 7.90718 6.19451Z" fill="black"/>
<path d="M3.34021 5.33603C3.32816 5.21951 3.32146 5.10165 3.32146 4.98246C3.32146 4.76951 3.34155 4.56192 3.37905 4.35969C3.38843 4.31147 3.36298 4.26192 3.31878 4.24183C3.13664 4.16014 2.96923 4.04764 2.82459 3.90567C2.65415 3.74041 2.52003 3.54144 2.43079 3.32145C2.34155 3.10146 2.29914 2.86529 2.30628 2.62799C2.31834 2.19808 2.4911 1.7896 2.79244 1.48156C3.12325 1.14272 3.56789 0.957903 4.04066 0.963261C4.46789 0.967278 4.88039 1.13201 5.19244 1.42397C5.29825 1.52308 5.38932 1.6329 5.46566 1.75076C5.49244 1.79228 5.54468 1.80969 5.59021 1.79362C5.82593 1.71192 6.07503 1.65433 6.33084 1.62755C6.40584 1.61951 6.44869 1.53915 6.41521 1.47219C5.97994 0.611028 5.09066 0.0163857 4.06209 0.000314246C2.57816 -0.0224536 1.34066 1.19496 1.34066 2.67889C1.34066 3.51996 1.72771 4.26996 2.33441 4.76148C1.90852 4.95835 1.5161 5.23023 1.17593 5.5704C0.441998 6.30299 0.0268192 7.26996 3.3489e-05 8.30255C-0.000323973 8.31684 0.00218331 8.33106 0.00740747 8.34437C0.0126316 8.35768 0.020467 8.36981 0.030452 8.38004C0.0404369 8.39028 0.0523694 8.39841 0.0655463 8.40396C0.0787232 8.40951 0.092878 8.41237 0.107176 8.41237H0.858516C0.916105 8.41237 0.964319 8.36683 0.965658 8.30924C0.991105 7.53246 1.30584 6.80523 1.85896 6.25344C2.25271 5.85969 2.73485 5.58648 3.26119 5.45389C3.31209 5.43915 3.34691 5.3896 3.34021 5.33603ZM9.37369 4.98246C9.37369 3.51728 8.19646 2.32665 6.73664 2.30389C5.25271 2.28112 4.01655 3.49853 4.01655 4.98246C4.01655 5.82353 4.40494 6.57353 5.0103 7.06505C4.58 7.26451 4.18827 7.53835 3.85316 7.87397C3.11923 8.60656 2.70405 9.57353 2.67727 10.6048C2.67691 10.6191 2.67942 10.6333 2.68464 10.6466C2.68986 10.6599 2.6977 10.672 2.70768 10.6823C2.71767 10.6925 2.7296 10.7006 2.74278 10.7062C2.75596 10.7117 2.77011 10.7146 2.78441 10.7146H3.53441C3.592 10.7146 3.64021 10.6691 3.64155 10.6115C3.667 9.83469 3.98173 9.10746 4.53485 8.55567C5.11209 7.97844 5.87816 7.66103 6.69512 7.66103C8.17369 7.66103 9.37369 6.46237 9.37369 4.98246ZM7.90718 6.19451C7.58307 6.51862 7.15316 6.69674 6.69512 6.69674C6.23709 6.69674 5.80718 6.51862 5.48307 6.19451C5.32133 6.03362 5.19354 5.8419 5.10727 5.63071C5.021 5.41952 4.97801 5.19316 4.98084 4.96505C4.98485 4.52576 5.1603 4.10121 5.467 3.78648C5.78843 3.45701 6.21834 3.27353 6.67771 3.26817C7.13173 3.26415 7.57236 3.44094 7.89646 3.75835C8.22861 4.0838 8.41075 4.51906 8.41075 4.98246C8.40941 5.44049 8.23128 5.8704 7.90718 6.19451Z" fill="black"/>
<path d="M4.00001 4.98247C4.00001 3.5173 5.17724 2.32667 6.63706 2.3039C8.12099 2.28114 9.35715 3.49855 9.35715 4.98247C9.35715 5.82355 8.96876 6.57355 8.3634 7.06506C8.79371 7.26453 9.18543 7.53837 9.52055 7.87399C10.2545 8.60658 10.6697 9.57355 10.6964 10.6048C10.6968 10.6191 10.6943 10.6333 10.6891 10.6466C10.6838 10.6599 10.676 10.6721 10.666 10.6823C10.656 10.6925 10.6441 10.7007 10.6309 10.7062C10.6177 10.7118 10.6036 10.7146 10.5893 10.7146H9.8393C9.78171 10.7146 9.73349 10.6691 9.73215 10.6115C9.70671 9.83471 9.39197 9.10747 8.83885 8.55569C8.26162 7.97846 7.49555 7.66105 6.67858 7.66105C5.20001 7.66105 4.00001 6.46239 4.00001 4.98247ZM5.46653 6.19453C5.79063 6.51864 6.22055 6.69676 6.67858 6.69676C7.13662 6.69676 7.56653 6.51864 7.89064 6.19453C8.05237 6.03364 8.18016 5.84192 8.26643 5.63073C8.3527 5.41954 8.3957 5.19318 8.39287 4.96506C8.38885 4.52578 8.2134 4.10122 7.90671 3.78649C7.58528 3.45703 7.15537 3.27355 6.69599 3.26819C6.24197 3.26417 5.80135 3.44096 5.47724 3.75837C5.1451 4.08381 4.96296 4.51908 4.96296 4.98247C4.9643 5.44051 5.14242 5.87042 5.46653 6.19453Z" fill="black"/>
<path d="M4.00001 4.98247C4.00001 3.5173 5.17724 2.32667 6.63706 2.3039C8.12099 2.28114 9.35715 3.49855 9.35715 4.98247C9.35715 5.82355 8.96876 6.57355 8.3634 7.06506C8.79371 7.26453 9.18543 7.53837 9.52055 7.87399C10.2545 8.60658 10.6697 9.57355 10.6964 10.6048C10.6968 10.6191 10.6943 10.6333 10.6891 10.6466C10.6838 10.6599 10.676 10.6721 10.666 10.6823C10.656 10.6925 10.6441 10.7007 10.6309 10.7062C10.6177 10.7118 10.6036 10.7146 10.5893 10.7146H9.8393C9.78171 10.7146 9.73349 10.6691 9.73215 10.6115C9.70671 9.83471 9.39197 9.10747 8.83885 8.55569C8.26162 7.97846 7.49555 7.66105 6.67858 7.66105C5.20001 7.66105 4.00001 6.46239 4.00001 4.98247ZM5.46653 6.19453C5.79063 6.51864 6.22055 6.69676 6.67858 6.69676C7.13662 6.69676 7.56653 6.51864 7.89064 6.19453C8.05237 6.03364 8.18016 5.84192 8.26643 5.63073C8.3527 5.41954 8.3957 5.19318 8.39287 4.96506C8.38885 4.52578 8.2134 4.10122 7.90671 3.78649C7.58528 3.45703 7.15537 3.27355 6.69599 3.26819C6.24197 3.26417 5.80135 3.44096 5.47724 3.75837C5.1451 4.08381 4.96296 4.51908 4.96296 4.98247C4.9643 5.44051 5.14242 5.87042 5.46653 6.19453Z" fill="black"/>
</svg>
